<?xml version="1.0" encoding="UTF-8" standalone="no"?>
<svg
   xmlns:dc="http://purl.org/dc/elements/1.1/"
   xmlns:cc="http://creativecommons.org/ns#"
   xmlns:rdf="http://www.w3.org/1999/02/22-rdf-syntax-ns#"
   xmlns:svg="http://www.w3.org/2000/svg"
   xmlns="http://www.w3.org/2000/svg"
   xmlns:sodipodi="http://sodipodi.sourceforge.net/DTD/sodipodi-0.dtd"
   xmlns:inkscape="http://www.inkscape.org/namespaces/inkscape"
   width="210mm"
   height="297mm"
   viewBox="0 0 210 297"
   version="1.1"
   id="svg8"
   inkscape:version="1.0.1 (3bc2e813f5, 2020-09-07)"
   sodipodi:docname="splash.svg">
  <defs
     id="defs2" />
  <sodipodi:namedview
     id="base"
     pagecolor="#000000"
     bordercolor="#666666"
     borderopacity="1.0"
     inkscape:pageopacity="1"
     inkscape:pageshadow="2"
     inkscape:zoom="4"
     inkscape:cx="312.52917"
     inkscape:cy="257.07735"
     inkscape:document-units="mm"
     inkscape:current-layer="layer1"
     inkscape:document-rotation="0"
     showgrid="false"
     inkscape:window-width="2558"
     inkscape:window-height="1413"
     inkscape:window-x="1920"
     inkscape:window-y="0"
     inkscape:window-maximized="1" />
  <metadata
     id="metadata5">
    <rdf:RDF>
      <cc:Work
         rdf:about="">
        <dc:format>image/svg+xml</dc:format>
        <dc:type
           rdf:resource="http://purl.org/dc/dcmitype/StillImage" />
        <dc:title></dc:title>
      </cc:Work>
    </rdf:RDF>
  </metadata>
  <g
     inkscape:label="Layer 1"
     inkscape:groupmode="layer"
     id="layer1">
    <ellipse
       style="fill:#c0c5c1;fill-opacity:1;stroke:#ffffff;stroke-width:0.269999;stroke-miterlimit:4;stroke-dasharray:none;stroke-dashoffset:0;stroke-opacity:1"
       id="path833-7"
       cx="82.01503"
       cy="73.648468"
       rx="13.708028"
       ry="3.1544673" />
    <path
       style="fill:#7d8491;fill-opacity:1;stroke:none;stroke-width:0;stroke-miterlimit:4;stroke-dasharray:none;stroke-dashoffset:0;stroke-opacity:1"
       d="m 367.38045,284.90766 c -1.89235,-0.0153 -3.67291,0.74989 -5.40182,1.43184 -1.02529,0.44729 -2.08638,0.84619 -3.07126,1.36486 -0.36099,0.39297 -0.48495,0.96418 -0.74237,1.43328 -0.16262,0.36335 -0.50346,0.91754 -0.0259,1.18967 0.41414,0.24017 0.85185,-0.16254 1.25475,-0.26422 1.5205,-0.63294 3.13389,-1.29191 4.81668,-1.09053 1.76533,0.0893 3.35541,1.40786 3.88056,3.08026 0.83497,2.43638 0.061,5.30962 -1.80664,7.06546 -2.39153,2.54201 -5.77024,3.85156 -9.10677,4.61072 -4.22607,0.9554 -8.59475,1.14263 -12.83383,2.09895 -1.00904,0.50002 -1.88648,1.24713 -2.8396,1.81336 -0.44036,0.33491 -1.0008,0.5365 -1.36817,0.9541 -0.23968,0.42378 0.23488,0.89845 0.6709,0.75 5.05236,-0.84444 10.19174,-1.39573 15.23767,-2.39734 4.59232,-0.96805 9.23853,-2.36477 13.03314,-5.23007 1.58481,-1.21142 3.0897,-2.60204 4.13754,-4.31576 1.36593,-2.32314 1.69661,-5.22528 0.95335,-7.80842 -0.55417,-1.86204 -1.9305,-3.4775 -3.74964,-4.20044 -0.94718,-0.467 -2.00302,-0.5069 -3.03857,-0.48572 z"
       id="path898"
       transform="scale(0.26458333)" />
    <path
       style="fill:#7d8491;fill-opacity:1;stroke:none;stroke-width:0;stroke-miterlimit:4;stroke-dasharray:none;stroke-dashoffset:0;stroke-opacity:1"
       d="m 360.0522,281.71535 c -1.67558,0.92689 -3.32049,2.02699 -5.15656,2.66201 -8.08506,3.0486 -16.75303,4.17795 -25.32301,5.099 -12.09216,1.03819 -24.31394,1.07097 -36.41256,0.23095 -9.19108,-0.8046 -18.42008,-1.9195 -27.14934,-4.99422 -2.0441,-0.7085 -3.94594,-1.75344 -5.82838,-2.81199 -1.05555,-0.0714 -0.56235,1.2203 -0.29759,1.75353 2.66735,7.08764 6.96672,13.56407 12.63858,18.60126 7.32497,6.67814 16.6156,10.87039 26.22469,13.03258 2.16683,0.58133 4.54447,1.08377 6.14846,2.75725 0.44607,1.06458 -0.97389,1.64144 -1.81023,1.76811 -6.754,1.024 -13.70268,0.66556 -20.3635,2.35058 -1.63684,0.47511 -3.8762,1.37708 -3.8991,3.39432 0.0841,1.81926 2.19927,2.44243 3.64055,2.88353 4.84495,1.186 9.86701,1.45041 14.83295,1.67015 9.66474,-0.007 19.33547,0.009 28.9949,-0.32036 5.19211,-0.41356 10.50529,-0.59992 15.49016,-2.24271 1.30496,-0.42902 3.05992,-1.36234 2.61213,-3.02952 -0.49769,-1.63046 -2.46216,-2.10263 -3.8884,-2.5857 -7.72715,-1.85038 -15.81596,-1.1091 -23.59244,-2.13375 -0.82962,-0.10828 -2.41669,-0.80253 -1.70355,-1.84615 1.61942,-1.71392 4.13427,-2.13263 6.32601,-2.70586 11.92013,-2.21787 23.42118,-8.12212 31.09686,-17.66658 3.6397,-4.50325 6.42531,-9.72334 8.02359,-15.29191 0.0269,-0.30922 -0.27117,-0.65967 -0.60422,-0.57452 z"
       id="path896"
       transform="scale(0.26458333)" />
    <path
       style="fill:none;stroke:#eaf0ce;stroke-width:0.270435px;stroke-linecap:butt;stroke-linejoin:miter;stroke-opacity:1;fill-opacity:0.99249303"
       d="m 68.284309,73.549592 c 2.08834,8.625646 10.884939,9.904333 10.884939,9.904333 0,0 2.182407,0.567337 1.308415,1.055127 -0.87399,0.487789 -7.216092,-0.0238 -6.70609,1.791998 0.383829,1.366576 8.249885,1.056494 8.249885,1.056494"
       id="path835"
       sodipodi:nodetypes="ccssc" />
    <path
       style="fill:none;stroke:#eaf0ce;stroke-width:0.27;stroke-linecap:butt;stroke-linejoin:miter;stroke-miterlimit:4;stroke-dasharray:none;stroke-opacity:1"
       d="m 95.692872,73.861032 c -2.08834,8.625646 -10.819203,9.592893 -10.819203,9.592893 0,0 -2.182407,0.567337 -1.308415,1.055127 0.87399,0.487789 8.091696,-0.159099 7.581694,1.656702 -0.383829,1.366576 -9.12549,1.19179 -9.12549,1.19179"
       id="path839"
       sodipodi:nodetypes="ccssc" />
    <path
       style="fill:#800000;fill-opacity:1;stroke:none;stroke-width:0.183739;stroke-miterlimit:4;stroke-dasharray:none;stroke-dashoffset:0;stroke-opacity:1"
       d="m 94.475373,74.152449 c 0.06641,1.635969 -6.11385,2.603837 -12.530185,2.603837 -6.416334,0 -12.410638,-0.951388 -12.415234,-2.563062 -0.0037,-1.298231 5.967457,-2.253396 12.383791,-2.253396 6.416335,0 12.508953,0.915038 12.561628,2.212621 z"
       id="ellipse841"
       sodipodi:nodetypes="sssss" />
    <path
       style="fill:none;stroke:#eaf0ce;stroke-width:0.27;stroke-linecap:butt;stroke-linejoin:miter;stroke-miterlimit:4;stroke-dasharray:none;stroke-opacity:1"
       d="m 94.889082,76.128185 c 0.86227,-0.343645 1.945861,-0.986082 2.93285,-0.696059 1.149692,0.337833 1.472116,1.558573 1.207053,2.593937 -0.09186,0.358828 -0.254292,0.69539 -0.477303,0.965216 -2.091329,2.530351 -6.020729,2.325728 -9.094587,3.011541 -0.01766,0.0039 -0.266457,0.06171 -0.283961,0.066"
       id="path873"
       sodipodi:nodetypes="cssssc" />
    <path
       style="fill:none;stroke:#eaf0ce;stroke-width:0.27;stroke-linecap:butt;stroke-linejoin:miter;stroke-miterlimit:4;stroke-dasharray:none;stroke-opacity:1"
       d="m 94.464505,77.025426 c 0.0157,-0.0063 0.14005,-0.06057 0.156,-0.06712 0.583247,-0.239405 1.304797,-0.651642 1.963577,-0.458064 1.06159,0.311942 1.09457,1.721682 0.50041,2.440577 -1.4429,1.745786 -4.088848,1.501537 -6.051418,1.982362"
       id="path873-6"
       sodipodi:nodetypes="csssc" />
    <ellipse
       style="fill:none;fill-opacity:1;stroke:#eaf0ce;stroke-width:0.27;stroke-miterlimit:4;stroke-dasharray:none;stroke-dashoffset:0;stroke-opacity:1"
       id="path833"
       cx="82.015045"
       cy="73.648346"
       rx="13.708028"
       ry="3.1544673" />
    <path
       style="fill:none;stroke:#eaf0ce;stroke-width:0.176164px;stroke-linecap:butt;stroke-linejoin:miter;stroke-opacity:1"
       d="m 78.1086,56.466907 c -2.120322,2.048393 -2.525124,3.368852 -2.226451,4.38908 0.67195,2.295294 4.904564,3.070951 1.173308,7.197355"
       id="path921"
       sodipodi:nodetypes="csc" />
    <path
       style="fill:none;stroke:#eaf0ce;stroke-width:0.176164px;stroke-linecap:butt;stroke-linejoin:miter;stroke-opacity:1"
       d="m 82.783917,55.661258 c -6.90209,6.686136 4.112302,6.197556 -1.053143,11.586435"
       id="path921-5"
       sodipodi:nodetypes="cc" />
    <path
       style="fill:none;stroke:#eaf0ce;stroke-width:0.176164px;stroke-linecap:butt;stroke-linejoin:miter;stroke-opacity:1"
       d="m 87.830434,56.677081 c -2.445085,3.353906 -2.695932,4.829471 -1.333785,6.254677 1.14947,1.202683 2.3151,2.501981 0.280642,5.331759"
       id="path921-3"
       sodipodi:nodetypes="csc" />
  </g>
</svg>
