<?xml version="1.0" encoding="UTF-8" standalone="no"?>
<svg
   xmlns:dc="http://purl.org/dc/elements/1.1/"
   xmlns:cc="http://creativecommons.org/ns#"
   xmlns:rdf="http://www.w3.org/1999/02/22-rdf-syntax-ns#"
   xmlns:svg="http://www.w3.org/2000/svg"
   xmlns="http://www.w3.org/2000/svg"
   xmlns:sodipodi="http://sodipodi.sourceforge.net/DTD/sodipodi-0.dtd"
   xmlns:inkscape="http://www.inkscape.org/namespaces/inkscape"
   width="480"
   height="320"
   viewBox="0 0 127 84.666669"
   version="1.1"
   id="svg8"
   inkscape:version="1.0.1 (3bc2e813f5, 2020-09-07)"
   sodipodi:docname="splash.svg"
   inkscape:export-filename="/home/toni/projects/tearex/splash.png"
   inkscape:export-xdpi="1800"
   inkscape:export-ydpi="1800">
  <defs
     id="defs2" />
  <sodipodi:namedview
     id="base"
     pagecolor="#000000"
     bordercolor="#666666"
     borderopacity="1.0"
     inkscape:pageopacity="1"
     inkscape:pageshadow="2"
     inkscape:zoom="1.4142136"
     inkscape:cx="137.96736"
     inkscape:cy="79.133969"
     inkscape:document-units="mm"
     inkscape:current-layer="layer1"
     inkscape:document-rotation="0"
     showgrid="false"
     inkscape:window-width="2558"
     inkscape:window-height="1413"
     inkscape:window-x="1920"
     inkscape:window-y="0"
     inkscape:window-maximized="1"
     units="px" />
  <metadata
     id="metadata5">
    <rdf:RDF>
      <cc:Work
         rdf:about="">
        <dc:format>image/svg+xml</dc:format>
        <dc:type
           rdf:resource="http://purl.org/dc/dcmitype/StillImage" />
        <dc:title></dc:title>
      </cc:Work>
    </rdf:RDF>
  </metadata>
  <g
     inkscape:label="Layer 1"
     inkscape:groupmode="layer"
     id="layer1">
    <g
       id="g974"
       transform="translate(-1.1786656)">
      <ellipse
         style="fill:#c0c5c1;fill-opacity:1;stroke:#ffffff;stroke-width:0.696209;stroke-miterlimit:4;stroke-dasharray:none;stroke-dashoffset:0;stroke-opacity:1"
         id="path833-7"
         cx="63.1651"
         cy="47.779217"
         rx="35.346992"
         ry="8.1339874" />
      <path
         style="fill:#7d8491;fill-opacity:1;stroke:none;stroke-width:0;stroke-miterlimit:4;stroke-dasharray:none;stroke-dashoffset:0;stroke-opacity:1"
         d="m 102.32755,52.248764 c -1.29104,-0.01044 -2.50582,0.511608 -3.685359,0.976864 -0.699498,0.305161 -1.423421,0.577309 -2.09535,0.931168 -0.246283,0.268102 -0.330854,0.657807 -0.506477,0.977848 -0.110947,0.247893 -0.343483,0.625986 -0.01767,0.811645 0.282544,0.163855 0.581169,-0.110892 0.856046,-0.180262 1.037352,-0.43182 2.138078,-0.881399 3.28615,-0.744008 1.20439,0.06092 2.28921,0.960504 2.64749,2.10149 0.56966,1.662206 0.0416,3.622458 -1.23257,4.82037 -1.631605,1.734272 -3.936711,2.627705 -6.21304,3.145638 -2.883212,0.651816 -5.863719,0.779552 -8.755808,1.431996 -0.688412,0.341136 -1.28704,0.850848 -1.937301,1.237155 -0.300433,0.22849 -0.68279,0.366024 -0.933426,0.650929 -0.16352,0.289122 0.160245,0.612963 0.457718,0.511684 3.446944,-0.576115 6.953257,-0.952229 10.395814,-1.635572 3.133084,-0.660447 6.302933,-1.613351 8.891783,-3.568186 1.08123,-0.826484 2.10793,-1.775227 2.82282,-2.944403 0.93189,-1.584949 1.1575,-3.564918 0.65041,-5.32725 -0.37808,-1.270366 -1.31707,-2.372505 -2.55817,-2.865727 -0.64621,-0.318608 -1.36655,-0.345829 -2.07304,-0.331379 z"
         id="path898" />
      <path
         style="fill:#7d8491;fill-opacity:1;stroke:none;stroke-width:0;stroke-miterlimit:4;stroke-dasharray:none;stroke-dashoffset:0;stroke-opacity:1"
         d="m 97.327895,50.070828 c -1.143155,0.632366 -2.265385,1.382903 -3.518034,1.816141 -5.515986,2.079891 -11.42966,2.850383 -17.27648,3.478764 -8.249808,0.7083 -16.588048,0.730664 -24.842264,0.157565 -6.270562,-0.548934 -12.566995,-1.309568 -18.522483,-3.407279 -1.394576,-0.48337 -2.692096,-1.196274 -3.97638,-1.918464 -0.720143,-0.04871 -0.38366,0.832543 -0.203029,1.196336 1.819785,4.835502 4.753005,9.25401 8.6226,12.690605 4.997419,4.556123 11.335899,7.416262 17.891647,8.891404 1.478307,0.396609 3.100439,0.739396 4.194752,1.881118 0.304328,0.726304 -0.664431,1.119863 -1.23502,1.206283 -4.607878,0.698618 -9.348576,0.454074 -13.892882,1.60367 -1.116725,0.324141 -2.644516,0.939505 -2.660139,2.315755 0.05738,1.24118 1.500439,1.666335 2.483744,1.967273 3.30544,0.809141 6.731712,0.989534 10.119697,1.13945 6.593714,-0.0048 13.191515,0.0061 19.781606,-0.218564 3.542288,-0.282149 7.167175,-0.409292 10.568075,-1.530076 0.890301,-0.292697 2.087613,-0.929449 1.782111,-2.066873 -0.339547,-1.112372 -1.679795,-1.434507 -2.652839,-1.764079 -5.271805,-1.262412 -10.79035,-0.756677 -16.095809,-1.455739 -0.566004,-0.07387 -1.648773,-0.547522 -1.162238,-1.259525 1.10484,-1.169313 2.820583,-1.454975 4.315885,-1.846058 8.132441,-1.513129 15.978968,-5.541271 21.215657,-12.052925 2.483165,-3.072316 4.383631,-6.633693 5.474049,-10.432819 0.01835,-0.210963 -0.185004,-0.450056 -0.412226,-0.391963 z"
         id="path896" />
      <path
         style="fill:none;fill-opacity:0.992493;stroke:#eaf0ce;stroke-width:0.697333px;stroke-linecap:butt;stroke-linejoin:miter;stroke-opacity:1"
         d="m 27.759596,47.524258 c 5.384913,22.241757 28.067483,25.53893 28.067483,25.53893 0,0 5.627471,1.462914 3.373829,2.72071 -2.253637,1.257794 -18.607136,-0.06137 -17.292065,4.620777 0.989727,3.5238 21.272835,2.724234 21.272835,2.724234"
         id="path835"
         sodipodi:nodetypes="ccssc" />
      <path
         style="fill:none;stroke:#eaf0ce;stroke-width:0.696212;stroke-linecap:butt;stroke-linejoin:miter;stroke-miterlimit:4;stroke-dasharray:none;stroke-opacity:1"
         d="m 98.434258,48.327325 c -5.384913,22.241758 -27.897979,24.735863 -27.897979,24.735863 0,0 -5.62747,1.462914 -3.373828,2.72071 2.253636,1.257794 20.864934,-0.410247 19.549863,4.271908 -0.989727,3.5238 -23.530636,3.073103 -23.530636,3.073103"
         id="path839"
         sodipodi:nodetypes="ccssc" />
      <path
         style="fill:#800000;fill-opacity:1;stroke:none;stroke-width:0.473782;stroke-miterlimit:4;stroke-dasharray:none;stroke-dashoffset:0;stroke-opacity:1"
         d="m 95.294862,49.078762 c 0.171242,4.218446 -15.764937,6.714153 -32.309851,6.714153 -16.544911,0 -32.001592,-2.453212 -32.013443,-6.609012 -0.0095,-3.347569 15.387454,-5.81052 31.932365,-5.81052 16.544914,0 32.255103,2.359481 32.390929,5.705379 z"
         id="ellipse841"
         sodipodi:nodetypes="sssss" />
      <path
         style="fill:none;stroke:#eaf0ce;stroke-width:0.696212;stroke-linecap:butt;stroke-linejoin:miter;stroke-miterlimit:4;stroke-dasharray:none;stroke-opacity:1"
         d="m 96.361636,54.173318 c 2.223416,-0.88611 5.017524,-2.542673 7.562534,-1.794831 2.96455,0.871123 3.79594,4.018876 3.11246,6.688626 -0.23687,0.92526 -0.65571,1.793106 -1.23076,2.488869 -5.39262,6.524665 -15.524814,5.997032 -23.450946,7.765443 -0.04554,0.01006 -0.687076,0.159123 -0.732211,0.170185"
         id="path873"
         sodipodi:nodetypes="cssssc" />
      <path
         style="fill:none;stroke:#eaf0ce;stroke-width:0.696212;stroke-linecap:butt;stroke-linejoin:miter;stroke-miterlimit:4;stroke-dasharray:none;stroke-opacity:1"
         d="m 95.266838,56.486909 c 0.04048,-0.01624 0.361128,-0.156183 0.402256,-0.173073 1.503938,-0.61732 3.364499,-1.680299 5.063206,-1.181146 2.73737,0.804362 2.82241,4.439463 1.29033,6.293178 -3.720601,4.501616 -10.54334,3.871805 -15.603947,5.111642"
         id="path873-6"
         sodipodi:nodetypes="csssc" />
      <ellipse
         style="fill:none;fill-opacity:1;stroke:#eaf0ce;stroke-width:0.696212;stroke-miterlimit:4;stroke-dasharray:none;stroke-dashoffset:0;stroke-opacity:1"
         id="path833"
         cx="63.165142"
         cy="47.778904"
         rx="35.346992"
         ry="8.1339874" />
      <path
         style="fill:none;stroke:#eaf0ce;stroke-width:0.45425px;stroke-linecap:butt;stroke-linejoin:miter;stroke-opacity:1"
         d="m 53.092133,3.4755063 c -5.46738,5.2819075 -6.511187,8.6867917 -5.74104,11.3175127 1.732664,5.918556 12.646719,7.918635 3.025447,18.558821"
         id="path921"
         sodipodi:nodetypes="csc" />
      <path
         style="fill:none;stroke:#eaf0ce;stroke-width:0.45425px;stroke-linecap:butt;stroke-linejoin:miter;stroke-opacity:1"
         d="M 65.147725,1.3980909 C 47.350263,18.638703 75.751548,17.37887 62.432131,31.274425"
         id="path921-5"
         sodipodi:nodetypes="cc" />
      <path
         style="fill:none;stroke:#eaf0ce;stroke-width:0.45425px;stroke-linecap:butt;stroke-linejoin:miter;stroke-opacity:1"
         d="M 78.160479,4.0174528 C 71.855677,12.665705 71.208853,16.47054 74.721233,20.145521 c 2.963978,3.101192 5.969627,6.451512 0.723652,13.748268"
         id="path921-3"
         sodipodi:nodetypes="csc" />
    </g>
  </g>
</svg>
